<svg width="65" height="37" viewBox="0 0 65 37" fill="none" xmlns="http://www.w3.org/2000/svg">
<path d="M42.2186 36.3115C45.7913 36.3036 49.2165 34.88 51.7382 32.3547L59.967 24.1142C61.2454 22.8706 62.2631 21.3861 62.9609 19.7469C63.6587 18.1077 64.0227 16.3465 64.0318 14.5659C64.0408 12.7852 63.6948 11.0205 63.0136 9.37433C62.3325 7.72819 61.33 6.23346 60.0643 4.97706C58.7986 3.72066 57.2951 2.72763 55.641 2.05573C53.987 1.38383 52.2155 1.04645 50.4295 1.06321C48.6435 1.07996 46.8786 1.45053 45.2375 2.15335C43.5964 2.85617 42.1119 3.87723 40.8701 5.15717L35.177 10.8566L18.5929 27.466C17.8164 28.2442 16.8527 28.8109 15.7939 29.1117C14.735 29.4125 13.6165 29.4375 12.5452 29.1843C11.4739 28.931 10.4857 28.408 9.67505 27.6653C8.8644 26.9225 8.25841 25.9849 7.91503 24.942L2.12791 28.8336C3.21561 30.5277 5.22512 33.3074 6.94079 34.3658C8.65647 35.4243 10.5886 36.0851 12.5947 36.2996C14.6008 36.5141 16.6296 36.2767 18.5314 35.6051C20.4332 34.9334 22.1594 33.8446 23.5828 32.4189L45.8547 10.1065C46.4511 9.50908 47.1598 9.03463 47.9401 8.71025C48.7205 8.38586 49.5573 8.2179 50.4028 8.21594C51.2483 8.21398 52.0859 8.37808 52.8677 8.69885C53.6496 9.01962 54.3605 9.49078 54.9597 10.0854C55.5589 10.6801 56.0348 11.3866 56.3601 12.1646C56.6855 12.9427 56.8539 13.777 56.8559 14.6199C56.8578 15.4628 56.6932 16.2979 56.3715 17.0774C56.0497 17.8569 55.5771 18.5657 54.9807 19.1631L46.7519 27.4036C45.9754 28.1818 45.0116 28.7484 43.9528 29.0492C42.894 29.3501 41.7754 29.3751 40.7041 29.1218C39.6329 28.8686 38.6446 28.3456 37.834 27.6029C37.0233 26.8601 36.4174 25.9225 36.074 24.8795L30.841 30.12C32.0619 32.0233 33.7449 33.5886 35.7341 34.6709C37.7233 35.7532 39.9543 36.3175 42.2204 36.3115L42.2186 36.3115Z" fill="black"/>
<path d="M45.2133 8.94066C45.9897 8.16244 46.9533 7.59577 48.012 7.29483C49.0707 6.99389 50.1892 6.96874 51.2605 7.2218C52.3317 7.47485 53.32 7.99764 54.1307 8.74018C54.9415 9.48273 55.5476 10.4202 55.8912 11.463L61.1242 6.22253C60.0363 4.5288 58.5809 3.10019 56.8653 2.04211C55.1497 0.984025 53.2177 0.323463 51.2119 0.109148C49.206 -0.105167 47.1775 0.132242 45.276 0.803852C43.3745 1.47547 41.6484 2.56414 40.2252 3.98958L17.948 26.2985C16.7436 27.5046 15.108 28.1843 13.401 28.188C11.694 28.1918 10.0554 27.5194 8.84565 26.3186C7.63593 25.1179 6.9542 23.4872 6.95042 21.7853C6.94665 20.0834 7.62115 18.4497 8.82553 17.2436L17.0561 9.00309C17.8324 8.22484 18.796 7.65818 19.8547 7.35732C20.9135 7.05646 22.0319 7.03146 23.1031 7.28471C24.1743 7.53797 25.1624 8.061 25.9729 8.80378C26.7834 9.54657 27.3891 10.4843 27.7322 11.5272L32.9652 6.28496C31.8775 4.59111 30.4222 3.16236 28.7067 2.1041C26.9912 1.04586 25.0592 0.385118 23.0534 0.170635C21.0475 -0.043847 19.019 0.193394 17.1173 0.864867C15.2157 1.53634 13.4896 2.62491 12.0663 4.05026L3.83744 12.2925C1.37608 14.8295 0.0149319 18.2303 0.0482015 21.7598C0.0814749 25.2892 1.50649 28.6638 4.01523 31.1542C6.52398 33.6445 9.91494 35.0506 13.4551 35.0685C16.9953 35.0863 20.4004 33.7145 22.9344 31.2495L45.2133 8.94066Z" fill="black"/>
<path d="M45.2133 8.94066C45.9897 8.16244 46.9533 7.59577 48.012 7.29483C49.0707 6.99389 50.1892 6.96874 51.2605 7.2218C52.3317 7.47485 53.32 7.99764 54.1307 8.74018C54.9415 9.48273 55.5476 10.4202 55.8912 11.463L61.1242 6.22253C60.0363 4.5288 58.5809 3.10019 56.8653 2.04211C55.1497 0.984025 53.2177 0.323463 51.2119 0.109148C49.206 -0.105167 47.1775 0.132242 45.276 0.803852C43.3745 1.47547 41.6484 2.56414 40.2252 3.98958L17.948 26.2985C16.7436 27.5046 15.108 28.1843 13.401 28.188C11.694 28.1918 10.0554 27.5194 8.84565 26.3186C7.63593 25.1179 6.9542 23.4872 6.95042 21.7853C6.94665 20.0834 7.62115 18.4497 8.82553 17.2436L17.0561 9.00309C17.8324 8.22484 18.796 7.65818 19.8547 7.35732C20.9135 7.05646 22.0319 7.03146 23.1031 7.28471C24.1743 7.53797 25.1624 8.061 25.9729 8.80378C26.7834 9.54657 27.3891 10.4843 27.7322 11.5272L32.9652 6.28496C31.8775 4.59111 30.4222 3.16236 28.7067 2.1041C26.9912 1.04586 25.0592 0.385118 23.0534 0.170635C21.0475 -0.043847 19.019 0.193394 17.1173 0.864867C15.2157 1.53634 13.4896 2.62491 12.0663 4.05026L3.83744 12.2925C1.37608 14.8295 0.0149319 18.2303 0.0482015 21.7598C0.0814749 25.2892 1.50649 28.6638 4.01523 31.1542C6.52398 33.6445 9.91494 35.0506 13.4551 35.0685C16.9953 35.0863 20.4004 33.7145 22.9344 31.2495L45.2133 8.94066Z" fill="black"/>
<path d="M45.2133 8.94066C45.9897 8.16244 46.9533 7.59576 48.012 7.29482C49.0707 6.99389 50.1892 6.96874 51.2605 7.22179C52.3317 7.47484 53.32 7.99763 54.1307 8.74018C54.9415 9.48272 55.5476 10.4202 55.8912 11.463L61.1242 6.22253C60.0363 4.5288 58.5809 3.10019 56.8653 2.04211C55.1497 0.984025 53.2177 0.323459 51.2119 0.109144C49.206 -0.105167 47.1775 0.132238 45.276 0.803852C43.3745 1.47546 41.6484 2.56414 40.2252 3.98957L17.948 26.2985C16.7436 27.5045 15.108 28.1843 13.401 28.188C11.694 28.1918 10.0554 27.5194 8.84565 26.3186C7.63593 25.1179 6.9542 23.4872 6.95042 21.7853C6.94665 20.0834 7.62114 18.4497 8.82553 17.2436L17.0561 9.00309C17.8324 8.22484 18.796 7.65818 19.8547 7.35732C20.9135 7.05646 22.0319 7.03146 23.1031 7.28471C24.1743 7.53796 25.1624 8.061 25.9729 8.80378C26.7834 9.54657 27.3891 10.4843 27.7322 11.5272L32.9652 6.28496C31.8775 4.59111 30.4222 3.16235 28.7067 2.1041C26.9912 1.04585 25.0592 0.385114 23.0534 0.170632C21.0475 -0.0438508 19.019 0.193394 17.1173 0.864867C15.2157 1.53634 13.4896 2.62491 12.0663 4.05025L3.83744 12.2925C1.37609 14.8295 0.0149357 18.2303 0.0482053 21.7597C0.0814787 25.2892 1.50649 28.6638 4.01523 31.1542C6.52398 33.6445 9.91494 35.0506 13.4551 35.0685C16.9953 35.0863 20.4004 33.7145 22.9344 31.2495L45.2133 8.94066Z" fill="black"/>
</svg>
